<svg width="32" height="32" viewBox="0 0 32 32" fill="none" xmlns="http://www.w3.org/2000/svg">
<rect width="32" height="32" fill="#F4AFC1"/>
<path fill-rule="evenodd" clip-rule="evenodd" d="M8.45811 5.10513C7.78986 5.34773 7.31966 5.84852 7.11713 6.53348C6.95592 7.07873 6.96333 13.3258 7.12572 13.7212C7.35732 14.2855 7.76981 14.5711 8.35996 14.5759C9.06278 14.5816 9.16035 14.5036 11.6002 11.9874C13.5512 9.97533 13.9413 9.60759 14.3342 9.40998C15.2324 8.95827 16.0292 8.85285 16.8699 9.0746C17.722 9.29925 18.3502 9.70651 18.8246 10.3418C19.3039 10.9834 19.4465 11.3385 19.5667 12.1885C19.7629 13.5763 18.9592 15.1391 17.7117 15.7953C17.4797 15.9174 17.2898 16.0341 17.2898 16.0547C17.2898 16.0752 17.4796 16.1929 17.7116 16.3162C18.3213 16.6402 18.9068 17.2697 19.2439 17.9636C19.5056 18.5026 19.5277 18.5991 19.5539 19.3196C19.5792 20.0168 19.5617 20.1536 19.3814 20.6707C19.1435 21.3527 18.9093 21.7176 18.3973 22.205C17.9475 22.633 17.4232 22.892 16.6896 23.0487C15.9213 23.2127 15.2499 23.1037 14.4433 22.6839C13.8633 22.382 13.6847 22.2146 10.4585 18.9498C8.60081 17.0698 7.06537 15.5317 7.04651 15.5317C7.02757 15.5317 7.01208 17.6989 7.01208 20.3478C7.01208 25.0285 7.01633 25.1755 7.16337 25.5755C7.34734 26.0759 7.83706 26.6113 8.31731 26.8371C8.54549 26.9444 8.79453 27 9.04667 27H14.5366H19.8317C20.2145 27 20.5951 26.941 20.96 26.825C21.9143 26.5215 22.6198 26.0981 23.2794 25.4328C23.9856 24.7205 24.4118 24.0201 24.7222 23.0612C25.0154 22.1557 25.0861 20.8043 24.8882 19.8889C24.5636 18.3871 23.7211 17.1021 22.5584 16.3354C22.3656 16.2082 22.2079 16.0822 22.2079 16.0553C22.2079 16.0284 22.4372 15.8469 22.7174 15.652C23.2653 15.271 23.8849 14.557 24.2481 13.888C24.7794 12.9093 24.9853 11.4475 24.7458 10.3524C24.3707 8.63618 23.1396 7.39656 21.5831 7.16757C21.2706 7.12162 18.6567 7.09158 14.8967 7.09069C9.02652 7.08927 8.71732 7.08254 8.60265 6.95352C8.38227 6.70577 8.37236 6.39123 8.57725 6.14879C8.69391 6.01072 8.86531 5.93084 9.04607 5.9303L15.5396 5.91083C19.2677 5.89962 22.3506 5.8802 22.3904 5.86757C22.5329 5.82252 21.3526 5.29311 20.7831 5.1466C20.2265 5.00345 19.965 4.9974 14.4698 5.00054C9.83689 5.00315 8.6837 5.02325 8.45811 5.10513Z" fill="white"/>
</svg>
